/* XPM */
static char *a1c4702cb3f9492fe569eccf85331584bOTRRf2Ry9AfVdyO[] = {
/* columns rows colors chars-per-pixel */
"50 50 136 2 ",
"   c #010100",
".  c #020403",
"X  c #020304",
"o  c #030606",
"O  c #040607",
"+  c #040608",
"@  c #06090A",
"#  c #080A0B",
"$  c #080B0D",
"%  c #090C0F",
"&  c #0D0E10",
"*  c #0F1213",
"=  c #121316",
"-  c #111417",
";  c #13171A",
":  c #161619",
">  c #15181B",
",  c #17191E",
"<  c #19191E",
"1  c #1B1C20",
"2  c #1E2327",
"3  c #202328",
"4  c #212429",
"5  c #242629",
"6  c #272A2D",
"7  c #282B2F",
"8  c #2B2E33",
"9  c #2C2C30",
"0  c #2D2E34",
"q  c #2F3135",
"w  c #303235",
"e  c #313439",
"r  c #35363B",
"t  c #373B3E",
"y  c #3C3B3E",
"u  c #3C3C3E",
"i  c #3A3C40",
"p  c #414143",
"a  c #434344",
"s  c #404349",
"d  c #454549",
"f  c #4A494B",
"g  c #4B4A4C",
"h  c #4A4C50",
"j  c #4D4D50",
"k  c #504F53",
"l  c #535357",
"z  c #555254",
"x  c #545258",
"c  c #585558",
"v  c #5B5A5B",
"b  c #5A5A5D",
"n  c #5E5B5E",
"m  c #5F5C5E",
"M  c #5F5E62",
"N  c #615E60",
"B  c #615E64",
"V  c #606065",
"C  c #646166",
"Z  c #696667",
"A  c #6A6768",
"S  c #6B686A",
"D  c #6C696B",
"F  c #6E6B6E",
"G  c #6E6C6D",
"H  c #6E6C70",
"J  c #706D72",
"K  c #737172",
"L  c #717074",
"P  c #7A797A",
"I  c #7F7B7B",
"U  c #7B787D",
"Y  c #7E7B7C",
"T  c #7F7C7D",
"R  c #7F7C81",
"E  c #818080",
"W  c #858282",
"Q  c #898689",
"!  c #8E8B8B",
"~  c #928D8D",
"^  c #969394",
"/  c #9B9898",
"(  c #A29FA1",
")  c #A8A7A9",
"_  c #A9A8A9",
"`  c #ACACAC",
"'  c #B1ADAE",
"]  c #B4B3B3",
"[  c #B4B1B4",
"{  c #BBB8B7",
"}  c #BAB8BA",
"|  c #BEBBBA",
" . c #BFBDBC",
".. c #C0BEBE",
"X. c #C5C2C2",
"o. c #C7C4C3",
"O. c #C6C3C4",
"+. c #C7C5C6",
"@. c #C8C6C6",
"#. c #CAC8C9",
"$. c #CCCACA",
"%. c #CBCBCC",
"&. c gray80",
"*. c #D1CECF",
"=. c #D1CFD0",
"-. c #D3D1D2",
";. c #D5D3D3",
":. c #D5D4D3",
">. c #D6D3D4",
",. c #D5D4D4",
"<. c #D7D7D8",
"1. c #D9D9D8",
"2. c #DCDBDA",
"3. c #DCDCDB",
"4. c #DCDBDC",
"5. c #DFDEDC",
"6. c #E0DFDF",
"7. c #E1E1E2",
"8. c #E7E7E7",
"9. c #E9E8E5",
"0. c #EAE9EA",
"q. c #ECEBEB",
"w. c #EDECEB",
"e. c #EFEDEC",
"r. c #F1EFEE",
"t. c #F1EFF2",
"y. c #F3F3F2",
"u. c #F4F2F2",
"i. c #F4F5F3",
"p. c #F4F4F4",
"a. c #F8F6F4",
"s. c #F9F9F7",
"d. c #FBFBFB",
"f. c #FCFBFB",
"g. c #FCFCFB",
"h. c white",
/* pixels */
"                                                                                                    ",
"                                                                                                    ",
"                                                                                                    ",
"                                                                                                    ",
"                                                o O + + O o                                         ",
"                                        ; 9 j V L Y R R U J M d 5 -                                 ",
"                                  O 1 j Q | 9.i.h.h.h.h.h.h.y.5.] E d 1 X                           ",
"                                : k ' s.h.h.h.h.h.h.h.h.h.h.h.h.h.h.p._ d *                         ",
"                            O i ] g.h.h.h.h.h.h.h.h.h.h.h.h.h.h.h.h.h.h.a./ 9                       ",
"                          & Z 8.d.h.h.h.h.h.h.h.h.h.h.h.h.h.h.h.h.h.h.h.h.d.%.h                     ",
"                        = I 0.h.h.h.h.h.h.h.h.h.h.h.h.h.h.h.h.h.h.h.h.h.h.h.h.5.S +                 ",
"                      = Y e.h.h.h.h.h.h.h.h.h.h.h.h.h.h.h.h.h.h.h.h.h.h.h.h.h.h.0.K *               ",
"                    o D e.h.h.h.h.h.h.h.h.h.h.h.h.h.h.h.h.h.h.h.h.h.h.h.h.h.h.h.h.K *               ",
"                    k 6.h.h.h.h.h.h.h.h.h.h.h.h.h.h.h.h.h.h.h.h.h.h.h.h.h.h.h.3.P 1                 ",
"                  6 +.h.h.h.h.h.h.h.h.h.h.h.h.h.h.h.h.h.h.h.h.h.h.h.h.h.h.h.$.c $                   ",
"                  W u.h.h.h.h.h.h.h.h.h.h.h.h.h.h.h.h.h.h.h.h.h.h.h.h.h.d.X.f                       ",
"                w >.h.h.h.h.h.h.h.h.h.h.h.h.h.h.h.h.h.h.h.h.h.h.h.h.h.d.{ y                         ",
"              @ K e.h.h.h.h.h.h.h.h.h.h.h.h.h.h.h.h.h.h.h.h.h.h.h.h.h._ 7                           ",
"              , &.h.h.h.h.h.h.h.h.h.h.h.h.h.h.h.h.h.h.h.h.h.h.h.h.h.^ 4                             ",
"              a p.h.h.h.h.h.h.h.h.h.h.h.h.h.h.h.h.h.h.h.h.h.h.h.d.Q 2                               ",
"            * E f.h.h.h.h.h.h.h.h.h.h.h.h.h.h.h.h.h.h.h.h.h.h.w.A <                                 ",
"            ; } h.h.h.h.h.h.h.h.h.h.h.h.h.h.h.h.h.h.h.h.h.h.=.v #                                   ",
"            < 7.h.h.h.h.h.h.h.h.h.h.h.h.h.h.h.h.h.h.h.h.f...g                                       ",
"            < p.h.h.h.h.h.h.h.h.h.h.h.h.h.h.h.h.h.h.h.p.[ t                                         ",
"            < t.h.h.h.h.h.h.h.h.h.h.h.h.h.h.h.h.h.h.h._ 8                                           ",
"            < t.h.h.h.h.h.h.h.h.h.h.h.h.h.h.h.h.h.h.i.l                                             ",
"            < y.h.h.h.h.h.h.h.h.h.h.h.h.h.h.h.h.h.h.h.$.g                                           ",
"            < t.h.h.h.h.h.h.h.h.h.h.h.h.h.h.h.h.h.h.h.h.*.b O                                       ",
"            , <.h.h.h.h.h.h.h.h.h.h.h.h.h.h.h.h.h.h.h.h.h.6.G *                                     ",
"            ; ` h.h.h.h.h.h.h.h.h.h.h.h.h.h.h.h.h.h.h.h.h.h.u.T <                                   ",
"            % K d.h.h.h.h.h.h.h.h.h.h.h.h.h.h.h.h.h.h.h.h.h.h.h.~ 7                                 ",
"              w e.h.h.h.h.h.h.h.h.h.h.h.h.h.h.h.h.h.h.h.h.h.h.h.h.| w                               ",
"              ; } d.h.h.h.h.h.h.h.h.h.h.h.h.h.h.h.h.h.h.h.h.h.h.h.h.+.i                             ",
"              o N 0.h.h.h.h.h.h.h.h.h.h.h.h.h.h.h.h.h.h.h.h.h.h.h.h.h.#.d                           ",
"                5 O.h.h.h.h.h.h.h.h.h.h.h.h.h.h.h.h.h.h.h.h.h.h.h.h.h.h.,.m                         ",
"                  F r.h.h.h.h.h.h.h.h.h.h.h.h.h.h.h.h.h.h.h.h.h.h.h.h.h.h.2.D &                     ",
"                  > ) h.h.h.h.h.h.h.h.h.h.h.h.h.h.h.h.h.h.h.h.h.h.h.h.h.h.h.e.T 2                   ",
"                    r @.h.h.h.h.h.h.h.h.h.h.h.h.h.h.h.h.h.h.h.h.h.h.h.h.h.h.h.g.( q X               ",
"                      k 4.h.h.h.h.h.h.h.h.h.h.h.h.h.h.h.h.h.h.h.h.h.h.h.h.h.h.h.h.E =               ",
"                      . c 7.h.h.h.h.h.h.h.h.h.h.h.h.h.h.h.h.h.h.h.h.h.h.h.h.h.h.,.z #               ",
"                        O c e.h.h.h.h.h.h.h.h.h.h.h.h.h.h.h.h.h.h.h.h.h.h.h.d.-.p                   ",
"                            u #.h.h.h.h.h.h.h.h.h.h.h.h.h.h.h.h.h.h.h.h.h.g.( 6                     ",
"                              3 P :.h.h.h.h.h.h.h.h.h.h.h.h.h.h.h.h.h.h.$.n ;                       ",
"                                * r K o.h.h.h.h.h.h.h.h.h.h.h.h.h.s.} H 0 @                         ",
"                                    % w N !  .1.e.h.h.h.h.q.;.' W b 8 $                             ",
"                                          = e s x B V C N l a 7 %                                   ",
"                                                                                                    ",
"                                                                                                    ",
"                                                                                                    ",
"                                                                                                    "
};
