/* XPM */
static char *d97bbb193fe04d9185d1cff353e43f072A6vqj64yn5d1MLE[] = {
/* columns rows colors chars-per-pixel */
"50 50 133 2 ",
"   c #000000",
".  c #050509",
"X  c #070809",
"o  c #09090B",
"O  c #0B0E10",
"+  c #0F1013",
"@  c #131415",
"#  c #131519",
"$  c #171A1F",
"%  c #191B1F",
"&  c #1D1E21",
"*  c #1F2121",
"=  c #232226",
"-  c #252528",
";  c #282728",
":  c #27282C",
">  c #2B2B2D",
",  c #2A2C30",
"<  c #2E3033",
"1  c #323235",
"2  c #35363B",
"3  c #3A393C",
"4  c #41403F",
"5  c #3C3D41",
"6  c #3F4043",
"7  c #434345",
"8  c #474748",
"9  c #47494D",
"0  c #4A4A4D",
"q  c #4D4D52",
"w  c #4F5155",
"e  c #525152",
"r  c #5C5B5C",
"t  c #5E5F62",
"y  c #626264",
"u  c #676768",
"i  c #6C6B6E",
"p  c #716D6E",
"a  c #736F70",
"s  c #737071",
"d  c #757679",
"f  c #7D7C7D",
"g  c #7E7F80",
"h  c #848384",
"j  c #898687",
"k  c #888789",
"l  c #8A8A8D",
"z  c #8E8D91",
"x  c #928F94",
"c  c #959396",
"v  c #959799",
"b  c #9D9D9D",
"n  c #9F9FA0",
"m  c #A29FA4",
"M  c #A2A1A2",
"N  c #AAA6A6",
"B  c #ABA8A7",
"V  c #ACACAB",
"C  c #B0ACAB",
"Z  c #B5B4B5",
"A  c #B9B6B5",
"S  c #BBB8B7",
"D  c #B7B5B8",
"F  c #BBBBBC",
"G  c #C0BEBE",
"H  c #C0BEC2",
"J  c #C4C3C4",
"K  c #C8C6C5",
"L  c #CDCCCC",
"P  c #D5D4D4",
"I  c #DADAD7",
"U  c #D7D8D8",
"Y  c #D9D9D8",
"T  c #DAD8D8",
"R  c #DBDAD8",
"E  c #DBDAD9",
"W  c #D8D8DA",
"Q  c #DBD9DA",
"!  c #DCDBD9",
"~  c #DDDBD9",
"^  c #DDDCD9",
"/  c #DCDADD",
"(  c #DCDBDD",
")  c #DEDDDC",
"_  c #DCDADD",
"`  c #E0DDDC",
"'  c #E0E0DF",
"]  c #E3E1E0",
"[  c #E2E1E1",
"{  c #E3E2E1",
"}  c #E2E1E3",
"|  c #E4E5E6",
" . c #E5E4E4",
".. c #EAE9E7",
"X. c #E8E9E8",
"o. c #E9E9E8",
"O. c #E8E8E9",
"+. c #EBEAE9",
"@. c gray93",
"#. c #EFEEED",
"$. c #F1F0F0",
"%. c #F2F1F1",
"&. c gray95",
"*. c #F2F2F3",
"=. c #F3F2F3",
"-. c #F4F1F2",
";. c #F4F2F3",
":. c #F5F3F4",
">. c #F5F4F5",
",. c #F6F5F4",
"<. c #F6F5F5",
"1. c #F6F6F5",
"2. c #F6F5F6",
"3. c #F6F6F6",
"4. c #F5F4F4",
"5. c #F8F7F6",
"6. c #F8F7F7",
"7. c #F9F8F7",
"8. c #F9F9F8",
"9. c #FAF9F9",
"0. c #F9FAF9",
"q. c gray98",
"w. c #FCFBFB",
"e. c #FDFCFB",
"r. c #FDFCFC",
"t. c #FCFDFC",
"y. c #FDFDFD",
"u. c #FEFDFC",
"i. c #FEFEFE",
"p. c #FFFEFE",
"a. c #FFFFFE",
"s. c white",
"d. c #FFFFFF",
/* pixels */
"                                                                                                    ",
"                                                                                                    ",
"                                                                                                    ",
"                                                                                                    ",
"                                        X @ & = = = = % +                                           ",
"                                  . & q k V F J J K J D n s 3 @                                     ",
"                                > g J ] s.s.s.s.s.s.s.s.s.:.U Z i =                                 ",
"                            & g L 5.s.s.s.s.s.s.s.s.s.s.s.s.s.s.%.K r O                             ",
"                          9 S 1.s.s.s.s.s.s.s.s.s.s.s.s.s.s.s.s.s.s.o.b :                           ",
"                      . t ' s.s.s.s.s.s.s.s.s.s.s.s.s.s.s.s.s.s.s.s.s.e.F 2                         ",
"                      r o.s.s.s.s.s.s.s.s.s.s.s.s.s.s.s.s.s.s.s.s.s.s.s.s.K >                       ",
"                    8 ] s.s.s.s.s.s.s.s.s.s.s.s.s.s.s.s.s.s.s.s.s.s.s.s.s.s.Z %                     ",
"                  = K s.s.s.s.s.s.s.s.s.s.s.s.s.s.s.s.s.s.s.s.s.s.s.s.s.s.s.9.j                     ",
"                X l 9.s.s.s.s.s.s.s.s.s.s.s.s.s.s.s.s.s.s.s.s.s.s.s.s.s.s.s.s.#.0                   ",
"                6 ] s.s.9.U F F F F F F F S F ] s.s.s.s.o.J D F F F F F S S P 7.D +                 ",
"              X v w.s.s.M 1 $ % % % % % % % $ 3 L s.s.U e # $ % % % % % % $ > b 1.e                 ",
"              1 T s.s.o.5                       e 9.9.h                       , ` D X               ",
"              y %.s.s.I 1                       & %.1.p                       @ C  .=               ",
"            o b s.s.s.T 2                       = -.1.s                       @ B 1.r               ",
"            = J s.s.s._ 2         o 3 3 4 &     - %.1.s         . ; 3 3 1 X   @ B s.l               ",
"            : L s.s.s.^ 2       o g T T ) F >   = %.1.s         0 J T T U r   @ B s.b               ",
"            > P s.s.s._ 2       - L s.s.s.s.q   - -.1.s       . l s.s.s.s.V   @ B s.M               ",
"            1 T s.s.s._ 2       > L s.s.s.s.w   = %.1.a       X z s.s.s.s.D   @ B s.Z .             ",
"            3 ( s.s.s._ 2       * F s.s.s.s.9   = -.1.s         f 7.s.s.s.b   @ B s.F X             ",
"            3 ( s.s.s.T 2         y H F J x &   = %.1.p         > b H F D 3   @ M s.F X             ",
"            3 ( s.s.s. .5           . . .       5 1.5.f           . . . .     * S s.F X             ",
"            3 ( s.s.s.s.c * o o o o o o o o o < F s.s.L 7 o o o o o o o o o @ d 9.s.F X             ",
"            3 ( s.s.s.s.e.A x x x x x x x x z K s.s.s.s._ x l c x x x x x z m 1.s.s.F X             ",
"            3 ( s.s.s.s.s.s.s.s.s.s.s.s.s.s.s.s.s.s.s.s.s.s.s.s.s.s.s.s.s.s.s.s.s.s.F X             ",
"            3 / s.s.s.s.s.s.s.s.s.s.s.s.s.s.s.s.s.s.s.s.s.s.s.s.s.s.s.s.s.s.s.s.s.s.F X             ",
"            3 ( s.s.s.s.s.s.s.s.s.s.s.s.s.s.s.s.s.s.s.s.s.s.s.s.s.s.s.s.s.s.s.s.s.s.F X             ",
"            3 ( s.s.s.s.s.s.s.s.s.s.s.s.s.s.s.s.s.s.s.s.s.s.s.s.s.s.s.s.s.s.s.s.s.s.F X             ",
"            3 / s.s.s.s.s.s.s.s.s.s.s.s.s.s.s.s.s.s.s.s.s.s.s.s.s.s.s.s.s.s.s.s.s.s.F X             ",
"            3 ( s.s.s.s.s.s.s.s.s.s.s.s.s.s.s.s.s.s.s.s.s.s.s.s.s.s.s.s.s.s.s.s.s.s.F X             ",
"            3 ( s.s.s.s.s.s.s.s.s.s.s.s.s.s.s.s.s.s.s.s.s.s.s.s.s.s.s.s.s.s.s.s.s.s.F X             ",
"            3 / s.s.s.s.s.s.s.s.s.s.s.s.s.s.s.s.s.s.s.s.s.s.s.s.s.s.s.s.s.s.s.s.s.s.F X             ",
"            3 / s.s.s.s.s.s.s.s.s.s.s.s.s.s.s.s.s.s.s.s.s.s.s.s.s.s.s.s.s.s.s.s.s.s.F X             ",
"            3 ( s.s.s.s.s.s.s.s.s.s.s.s.s.s.s.s.s.s.s.s.s.s.s.s.s.s.s.s.s.s.s.s.s.s.F X             ",
"            3 ( s.s.s.s.s.s.s.s.s.s.s.s.s.s.s.s.s.s.s.s.s.s.s.s.s.s.s.s.s.s.s.s.s.s.F X             ",
"            3 / s.s.s.s.s.#.D  .s.s.s.s.s.s.s.9.S L s.s.s.s.s.s.s.s.L K 9.s.s.s.s.s.F X             ",
"            3 ( s.s.s.s.4.f # y %.s.s.s.s.s.s.M & 1 U s.s.s.s.s.s.L 3 & Z s.s.s.s.s.F X             ",
"            3 ] s.s.s.s.z O     d 1.s.s.s.s.G %     8 ..s.s.s.s.) 7     - K s.s.s.s.J X             ",
"            & F s.s.s.V #       o z 9.s.s.) 1         u %.s.s.#.r         2 ) s.s.s.l               ",
"              5 P s.J =           @ V s. .9           o h s.w.s             e #.s.b @               ",
"                w M 1               > b t               # l f X               u v &                 ",
"                  X                   X                   .                     X                   ",
"                                                                                                    ",
"                                                                                                    ",
"                                                                                                    ",
"                                                                                                    "
};
