/* XPM */
static char *c33bae1845054c79c1b6fdf2a9b48bacu4qkODN9EOfS9LL1[] = {
/* columns rows colors chars-per-pixel */
"50 50 107 2 ",
"   c #010101",
".  c #020304",
"X  c #020404",
"o  c #040606",
"O  c #050608",
"+  c #080A0C",
"@  c #090C0D",
"#  c #0C1011",
"$  c #0D1114",
"%  c #12161A",
"&  c #15171B",
"*  c #15181D",
"=  c #171C1E",
"-  c #1B1F23",
";  c #1D1F21",
":  c #1F2122",
">  c #222326",
",  c #212629",
"<  c #252729",
"1  c #27292A",
"2  c #29292B",
"3  c #2A2B30",
"4  c #2D2E31",
"5  c #2E2E34",
"6  c #2C3033",
"7  c #313334",
"8  c #323537",
"9  c #373537",
"0  c #34353A",
"q  c #34373C",
"w  c #393B3D",
"e  c #3B3D42",
"r  c #3D3F43",
"t  c #3D3F44",
"y  c #3D4043",
"u  c #3E4046",
"i  c #424244",
"p  c #454548",
"a  c #494C4F",
"s  c #4B4E51",
"d  c #4D4F53",
"f  c #535153",
"g  c #59575A",
"h  c #585A5A",
"j  c #5B5D60",
"k  c #5D5D60",
"l  c #636266",
"z  c #6A6768",
"x  c #6B696B",
"c  c #6E6E72",
"v  c #727273",
"b  c #747373",
"n  c #727275",
"m  c #78777A",
"M  c #7B7A7A",
"N  c #8A8889",
"B  c #8F8B8A",
"V  c #8F8C8D",
"C  c #938E8E",
"Z  c #948F8E",
"A  c #93908F",
"S  c #918F90",
"D  c #909090",
"F  c #969494",
"G  c #9A9798",
"H  c #989898",
"J  c #9C9A9A",
"K  c #9D9B9C",
"L  c #A2A0A2",
"P  c #A9A5A5",
"I  c #AFABAB",
"U  c #B4B0AE",
"Y  c #B4B1B0",
"T  c #BCB9B8",
"R  c #C2C0C2",
"E  c #C8C6C7",
"W  c #CCCACB",
"Q  c #D0CECE",
"!  c #D3D0CE",
"~  c #D1CFD2",
"^  c #D3D0D3",
"/  c #D4D1D1",
"(  c gray84",
")  c #DAD9DA",
"_  c #DDDADA",
"`  c #DDDCDB",
"'  c #E0DFDE",
"]  c #DFDEE1",
"[  c #E3E3E2",
"{  c #E4E3E3",
"}  c #E3E3E4",
"|  c #E8E7E7",
" . c #E8E7E8",
".. c #EAE9EA",
"X. c #ECECEC",
"o. c #F1EFEF",
"O. c #F0F0EF",
"+. c #F0EFF0",
"@. c #F1F2F2",
"#. c #F3F3F4",
"$. c #F6F7F5",
"%. c #F8F8F7",
"&. c #F9F9F9",
"*. c #FCFCFB",
"=. c #FBFBFC",
"-. c #FCFBFC",
";. c white",
/* pixels */
"                                                                                                    ",
"                                                                                                    ",
"                                                                                                    ",
"                      + + + + + + + + + + + + + + + + + + + + + + + + + + + + O                     ",
"                  @ M X.;.=.;.;.=.;.=.=.;.;.;.;.;.;.-.-.;.;.;.;.;.-.;.-.-.-.&.T 7                   ",
"                  g ;.;.;.;.;.;.;.;.;.;.;.;.;.;.;.;.;.;.;.;.;.;.;.;.;.;.;.;.;.;.W o                 ",
"                X B ;.;.;.;.;.;.;.;.;.;.;.;.;.;.;.;.;.;.;.;.;.;.;.;.;.;.;.;.;.;.$.2                 ",
"                O Z ;.;.;.;.;.;.;.;.;.;.;.;.;.;.;.;.;.;.;.;.;.;.;.;.;.;.;.;.;.;.@.6                 ",
"                o C ;.;.;.;.;.;.$.$.$.$.$.$.$.$.$.$.$.$.$.$.$.$.$.$.&.;.;.;.;.;.X.4                 ",
"                o C ;.;.;.;.X.g e t t r t u u t t u u r t t t t t e r P ;.;.;.;.o.6                 ",
"                o C ;.;.;.;.J                                         y @.;.;.;.o.4                 ",
"                O C ;.;.;.;.V                                         e o.;.;.;.o.4                 ",
"                o C ;.;.;.;.C .                                       e O.;.;.;.o.4                 ",
"                O C ;.;.;.;.C .                                       e O.;.;.;.o.4                 ",
"                o C ;.;.;.;.S X                                       e o.;.;.;.o.4                 ",
"                O C ;.;.;.;.C .                                       e X.;.;.;.o.4                 ",
"                o C ;.;.;.;.C .                                       e O.;.;.;.o.4                 ",
"                o C ;.;.;.;.S X                                       e o.;.;.;.X.4                 ",
"                o C ;.;.;.;.C .                                       e X.;.;.;.X.4                 ",
"                o C ;.;.;.;.C .                                       e o.;.;.;.@.4                 ",
"                o C ;.;.;.;.S .                                       e X.;.;.;.@.4                 ",
"                O C ;.;.;.;.D X                                       e X.;.;.;.o.4                 ",
"                o C ;.;.;.;.C X                                       e o.;.;.;.o.4                 ",
"                O C ;.;.;.;.N                                         q X.;.;.;.o.4                 ",
"                O C ;.;.;.;.Q ;                                       b &.;.;.;.o.6                 ",
"                O C ;.;.;.;.;.{ ~ ^ ^ ^ ^ ^ ^ ^ ^ ^ ^ ^ ^ ^ ^ ^ ^ ~ ( &.;.;.;.;.@.4                 ",
"                O C ;.;.;.;.;.;.;.;.;.;.;.;.;.;.;.;.;.;.;.;.;.;.;.;.;.;.;.;.;.;.o.6                 ",
"                o C ;.;.;.;.;.;.;.;.;.;.;.;.;.;.;.;.;.;.;.;.;.;.;.;.;.;.;.;.;.;.o.6                 ",
"                O C ;.;.;.;.;.;.;.;.;.;.;.;.;.;.;.;.;.;.;.;.;.;.;.;.;.;.;.;.;.;.@.4                 ",
"                o C ;.;.;.;.;.;.;.;.;.;.;.;.;.;.;.;.;.;.;.;.;.;.;.;.;.;.;.;.;.;.o.4                 ",
"                o C ;.;.;.;.) l c _ ;.;.;.;.;.;.;.;.;.;.;.;.;.;.;.;.Y l n ' ;.;.o.4                 ",
"                o C ;.;.;.;.S   X Y ;.;.;.;.;.;.;.;.;.;.;.;.;.;.;.K $     0 / ;.O.4                 ",
"                O C ;.;.&.&.B   # U %.&.;.;.;.;.;.;.;.;.;.;.;.;.;.i         C ;.o.4                 ",
"                o C ;.#.h 7 :     1 7 f @.;.;.;.;.;.;.;.;.;.;.;.;.p         B ;.@.4                 ",
"                o C ;.X.>             & [ ;.;.;.;.;.;.;.;.;.;.;.;.H       > / ;.X.4                 ",
"                O C ;.$.v a 8     w s n %.;.;.;.;.;.;.;.;.( H ^ ;.;.G s j E ;.;.@.4                 ",
"                o C ;.;.&.&.B   + U &.;.;.;.;.;.;.;.;.;.F % X @ N ;.;.&.;.;.;.;.o.4                 ",
"                o C ;.;.;.;.H @ = T ;.;.;.;.;.;.;.;.;.` ,       @ | ;.;.;.;.;.;.@.7                 ",
"                o C ;.;.;.;.} P I ..;.;.;.;.;.;.;.;.;.Q -         ] ;.;.;.;.;.;. .%                 ",
"                O C ;.;.;.;.;.;.;.;.;.;.;.;.;.;.;.;.;.X.7       < +.;.;.;.;.;.;.R                   ",
"                O C ;.;.;.;.;.;.;.;.;.;.;.;.;.;.;.;.;.;.E 9 % 7 E ;.;.;.;.;.;.;.x                   ",
"                O C ;.;.;.;.;.;.;.;.;.;.;.;.;.;.;.;.;.;.;.*.' &.;.;.;.;.;.;.;.{ &                   ",
"                o C ;.;.;.;.;.;.;.;.;.;.;.;.;.;.;.;.;.;.;.;.;.;.;.;.;.;.;.;.&.d                     ",
"                o A ;.;.;.;.;.;.;.;.;.;.;.;.;.;.;.;.;.;.;.;.;.;.;.;.;.;.;.;.v                       ",
"                  z ;.;.;.;.;.;.;.;.;.;.;.;.;.;.;.;.;.;.;.;.;.;.;.;.;.;.| k                         ",
"                  * L ;.;.;.;.;.;.;.;.;.;.;.;.;.;.;.;.;.;.;.;.;.;.@.! m 6                           ",
"                    $ 5 7 7 7 7 7 7 7 7 7 7 7 7 7 7 7 7 7 7 7 7 7 3 -                               ",
"                                                                                                    ",
"                                                                                                    ",
"                                                                                                    "
};
