/* XPM */
static char *_ab34f25d09a4a6ad8c6e6a0b9d49a22ixaOblWKJGHrXfHa[] = {
/* columns rows colors chars-per-pixel */
"50 50 183 2 ",
"   c black",
".  c #000100",
"X  c #000101",
"o  c #010101",
"O  c #010201",
"+  c #020303",
"@  c #030402",
"#  c #030405",
"$  c #030505",
"%  c #030506",
"&  c #040505",
"*  c #040506",
"=  c #040607",
"-  c #050607",
";  c #060808",
":  c #060809",
">  c #06080A",
",  c #07090A",
"<  c #06090B",
"1  c #090C0F",
"2  c #0A0C0E",
"3  c #0C0D0E",
"4  c #0B0D10",
"5  c #0E1011",
"6  c #0D1013",
"7  c #0E1013",
"8  c #101214",
"9  c #111417",
"0  c #121618",
"q  c #18191B",
"w  c #191B1D",
"e  c #1A1B1C",
"r  c #1A1C1E",
"t  c #1B1D1F",
"y  c #181C20",
"u  c #1A1D21",
"i  c #1C1E21",
"p  c #1F2126",
"a  c #1E2226",
"s  c #212325",
"d  c #202327",
"f  c #212527",
"g  c #232528",
"h  c #23262B",
"j  c #272A2F",
"k  c #2A2C2F",
"l  c #2C2F33",
"z  c #313132",
"x  c #303134",
"c  c #353638",
"v  c #37363B",
"b  c #37373C",
"n  c #37393B",
"m  c #38383D",
"M  c #38393D",
"N  c #3D3C42",
"B  c #454347",
"V  c #434649",
"C  c #45474B",
"Z  c #47484B",
"A  c #4D4F53",
"S  c #534F50",
"D  c #515052",
"F  c #515256",
"G  c #575354",
"H  c #575656",
"J  c #5C5B5F",
"K  c #5C5C61",
"L  c #5E5E63",
"P  c #646161",
"I  c #656161",
"U  c #656162",
"Y  c #666263",
"T  c #646264",
"R  c #656364",
"E  c #636467",
"W  c #66656A",
"Q  c #67656A",
"!  c #66666A",
"~  c #66666B",
"^  c #67666B",
"/  c #68666B",
"(  c #706E6F",
")  c #706F70",
"_  c #737276",
"`  c #7A7776",
"'  c #777779",
"]  c #787779",
"[  c #787879",
"{  c #79797B",
"}  c #7A797A",
"|  c #7B797A",
" . c #7D7B7D",
".. c #817E7E",
"X. c #868485",
"o. c #8A8687",
"O. c #878688",
"+. c #86868A",
"@. c #888789",
"#. c #8B8A8B",
"$. c #8D8B8D",
"%. c #8C8A8E",
"&. c #8E8C90",
"*. c #8E8D90",
"=. c #8E8D91",
"-. c #8F8D91",
";. c #8F8E91",
":. c #8F8E92",
">. c #928F91",
",. c #908E92",
"<. c #918F93",
"1. c #979393",
"2. c #969495",
"3. c #989493",
"4. c #989595",
"5. c #999595",
"6. c #9A9595",
"7. c #9A9695",
"8. c #9C9A97",
"9. c #999798",
"0. c #9F9D9D",
"q. c #A09D9C",
"w. c #A3A2A2",
"e. c #A7A3A2",
"r. c #A6A5A5",
"t. c #A8A7A8",
"y. c #A9A7A8",
"u. c #B3B1B1",
"i. c #B3B1B2",
"p. c #B4B2B4",
"a. c #B4B3B5",
"s. c #BBB7B6",
"d. c #B9B7B8",
"f. c #BBB7B8",
"g. c #BBB8B8",
"h. c #BBB8B9",
"j. c #BBB9BA",
"k. c #BDBABA",
"l. c #BEBCB9",
"z. c #BCBABC",
"x. c #BCBABD",
"c. c #BCBBBD",
"v. c #BDBBBD",
"b. c #BFBDBD",
"n. c #C7C4C4",
"m. c #C9C7C6",
"M. c #CAC7C9",
"N. c #CCCAC9",
"B. c #CDCAC9",
"V. c #CDCBCA",
"C. c #CCCBCB",
"Z. c gray80",
"A. c #CECCCE",
"S. c #D3D1CF",
"D. c #D4D3D2",
"F. c #D9D8D7",
"G. c #DBDAD9",
"H. c #DCDBD9",
"J. c #E1E0DF",
"K. c #E4E3E3",
"L. c #E6E6E4",
"P. c #E7E6E5",
"I. c #EAEAE9",
"U. c #EBEAEA",
"Y. c #ECEAEA",
"T. c #EDECED",
"R. c #EDEEED",
"E. c #F2F1F0",
"W. c #F3F3F3",
"Q. c #F4F4F3",
"!. c #F6F5F4",
"~. c #F6F5F6",
"^. c #F9F9F8",
"/. c #FBFAF9",
"(. c gray98",
"). c #FBFAFB",
"_. c #FBFCFA",
"`. c gray99",
"'. c #FDFDFD",
"]. c #FEFEFD",
"[. c #FEFEFE",
"{. c #FEFFFE",
"}. c white",
/* pixels */
"                                                                                                    ",
"                                                                                                    ",
"                  h v S P P P P P P P P P P P P P P P P P P P P P P P P P P G m j                   ",
"              k o.K.}.}.}.}.}.}.}.}.}.}.}.}.}.}.}.}.}.}.}.}.}.}.}.}.}.}.}.}.}.}.U.1.m               ",
"            ) !.}.}.Y.A.v.v.v.v.v.v.v.v.v.v.v.v.v.v.v.v.v.v.v.v.v.v.v.v.v.v.M.L.}.}.(.#.#           ",
"        # @.}.}.N.K s                                                         t F s.}.}.t.2         ",
"        R }.}.2.w                                                                 8 { (.}.X.        ",
"      q }.}.0.                                                                        { }.}.z       ",
"      t.}.L.@                                                                           S.}.D.      ",
"    0 W.}.D                                                                             x }.}.h     ",
"    V (.U.p                                                                             7 H.}.Q     ",
"    K }.N.9                                                                             , e.}.O.    ",
"    Q }.k.,                                                                             = 3.}.>.    ",
"    / }.f.,                                                                             # 5.}.:.    ",
"    Q }.h.,                                                                             = 5.}.:.    ",
"    Q }.h.,                                                                             # 5.}.:.    ",
"    Q }.h.,                                                                             # 5.}.:.    ",
"    Q }.h.,                                                                             = 5.}.:.    ",
"    Q }.h.,                                                                             = 5.}.:.    ",
"    Q }.h.,                                                                             # 5.}.:.    ",
"    Q }.h.,                                                                             # 5.}.:.    ",
"    Q }.h.,                                                                             = 5.}.:.    ",
"    Q }.h.,                                                                             = 5.}.:.    ",
"    Q }.h.,                                                                             # 5.}.:.    ",
"    Q }.h.,                                                                             # 5.}.:.    ",
"    Q }.h.,                                                                             = 5.}.:.    ",
"    Q }.h.,                                                                             = 5.}.:.    ",
"    Q }.h.,                                                                             = 5.}.:.    ",
"    Q }.h.,                                                                             = 5.}.:.    ",
"    Q }.h.,                                                                             # 5.}.:.    ",
"    Q }.h.,                                                                             = 5.}.:.    ",
"    Q }.h.,                                                                             # 5.}.:.    ",
"    Q }.h.,                                                                             = 5.}.:.    ",
"    Q }.h.,                                                                             = 5.}.:.    ",
"    Q }.h.,                                                                             = 5.}.:.    ",
"    Q }.h.,                                                                             = 5.}.:.    ",
"    / }.h.,                                                                             # 5.}.:.    ",
"    Q }.h.,                                                                             # 3.}.>.    ",
"    K }.n.7                                                                             = q.}.$.    ",
"    A }.J.u                                                                             4 m.}._     ",
"    f !.}.b                                                                             i _.}.n     ",
"      A.}.l.                                                                            8.}.T.      ",
"      v }.}.E                                                                         C }.}.H       ",
"        9.}.(.J                                                                     Z T.}.f.        ",
"        7 b.}.(.>.l                                                             s  .Q.}.F.t         ",
"          3 a.}.}.W.h.$.{ ] ] ] ] ' ' ' { ] ] ] ' { { ] ' ' ] ] { ] ' ' ] ] O.a.Y.}.}.N.w           ",
"              R N.}.}.}.}.}.}.}.}.}.}.}.}.}.}.}.}.}.}.}.}.}.}.}.}.}.}.}.}.}.}.}.}.G.( 2             ",
"                u N ` w.i.i.i.i.i.i.i.i.i.i.i.i.i.i.i.i.i.i.i.i.i.i.i.i.i.i.r...B p                 ",
"                      = , , , , , , , , , , , , , , , , , , , , , , , , , , =                       ",
"                                                                                                    "
};
