/* XPM */
static char *_bf12b8febaa4ffff9963d5a4bf7cd3ahdbb6KzhjcRa4jxM[] = {
/* columns rows colors chars-per-pixel */
"50 50 179 2 ",
"   c black",
".  c #010000",
"X  c #000100",
"o  c #010100",
"O  c #010001",
"+  c #000101",
"@  c #010101",
"#  c #010202",
"$  c #020202",
"%  c #020303",
"&  c #020304",
"*  c #020404",
"=  c #020405",
"-  c #030506",
";  c #040507",
":  c #040607",
">  c #040608",
",  c #060608",
"<  c #06090A",
"1  c #080A0B",
"2  c #080B0D",
"3  c #0A0C0D",
"4  c #090C0F",
"5  c #0A0C0F",
"6  c #0C1011",
"7  c #0C1012",
"8  c #0F1213",
"9  c #101214",
"0  c #121316",
"q  c #111417",
"w  c #13171A",
"e  c #232312",
"r  c #232412",
"t  c #232413",
"y  c #242513",
"u  c #272917",
"i  c #272A17",
"p  c #282B19",
"a  c #2B2C19",
"s  c #2B2D1B",
"d  c #2C2D1C",
"f  c #2E301C",
"g  c #323420",
"h  c #323521",
"j  c #3A3B26",
"k  c #393D28",
"l  c #3C3F29",
"z  c #3D4029",
"x  c #41442C",
"c  c #44462E",
"v  c #45472F",
"b  c #444830",
"n  c #454931",
"m  c #454932",
"M  c #484B33",
"N  c #4B4C32",
"B  c #4B4D35",
"V  c #4B4E36",
"C  c #4F5037",
"Z  c #4F5239",
"A  c #515238",
"S  c #515338",
"D  c #525439",
"F  c #585C3F",
"G  c #585D40",
"H  c #5C5F41",
"J  c #5C6042",
"K  c #626443",
"L  c #656643",
"P  c #626646",
"I  c #666947",
"U  c #686A48",
"Y  c #686B49",
"T  c #6B6D4B",
"R  c #6B6F4C",
"E  c #6F704B",
"W  c #6F714C",
"Q  c #6F714E",
"!  c #72754F",
"~  c #747750",
"^  c #747751",
"/  c #757851",
"(  c #757853",
")  c #787951",
"_  c #7A7C53",
"`  c #7B7D55",
"'  c #7D8157",
"]  c #83865A",
"[  c #83865B",
"{  c #848559",
"}  c #868759",
"|  c #8B8D5F",
" . c #8C8D5D",
".. c #8E905E",
"X. c #8B8E61",
"o. c #909262",
"O. c #919262",
"+. c #939563",
"@. c #979864",
"#. c #969966",
"$. c #999A65",
"%. c #989B67",
"&. c #9B9D68",
"*. c #9C9E68",
"=. c #9D9E68",
"-. c #9E9F69",
";. c #9E9F6A",
":. c #9EA06B",
">. c #A2A26A",
",. c #A2A26D",
"<. c #A2A46C",
"1. c #A6A76D",
"2. c #A7A76D",
"3. c #A8A96E",
"4. c #ABAC70",
"5. c #AAAC71",
"6. c #ABAC71",
"7. c #ADAE71",
"8. c #AEAE71",
"9. c #AFB073",
"0. c #AFB173",
"q. c #B0B173",
"w. c #B0B174",
"e. c #B1B274",
"r. c #B1B375",
"t. c #B3B576",
"y. c #B4B476",
"u. c #B9BA77",
"i. c #BABB77",
"p. c #BBBC78",
"a. c #BCBD79",
"s. c #BCBE79",
"d. c #BEBF7A",
"f. c #BEC07A",
"g. c #BEC07B",
"h. c #C0C17C",
"j. c #C1C37D",
"k. c #C2C37C",
"l. c #C3C57C",
"z. c #C3C57D",
"x. c #CACB81",
"c. c #CACC80",
"v. c #CBCC81",
"b. c #CDCE80",
"n. c #CDCE81",
"m. c #CDCF81",
"M. c #CCCF82",
"N. c #CDCF82",
"B. c #CFD282",
"V. c #D0D283",
"C. c #D1D483",
"Z. c #D2D483",
"A. c #D5D785",
"S. c #D6D884",
"D. c #D9DB85",
"F. c #DBDD86",
"G. c #DFE187",
"H. c #E1E488",
"J. c #E6E989",
"K. c #E9ED89",
"L. c #EAED89",
"P. c #EAEE89",
"I. c #ECEF89",
"U. c #EDF089",
"Y. c #EDF189",
"T. c #EEF189",
"R. c #EFF288",
"E. c #F1F587",
"W. c #F2F587",
"Q. c #F2F687",
"!. c #F4F786",
"~. c #F6FA83",
"^. c #F5F984",
"/. c #F4F885",
"(. c #F5F985",
"). c #F6FA84",
"_. c #F4F886",
"`. c #F0F488",
"'. c #F1F588",
/* pixels */
"o o o o o o o o o o o o o o o o o o o o o o o o o o o o o o o o o o o o o o o o o o o o o o o o o o ",
"o o o o o o o o o o o o o o o o o o o o o o o o o o o o o o o o o o o o o o o o o o o o o o o o o o ",
"o o o o o o o o o o o o o o o o o o o o o o o o o o o o o o o o o o o o o o o o o o o o o o o o o o ",
"o o o o o o o o o o o o o o o o o o o o o o o o o o o o o o o o o o o o o o o o o o o o o o o o o o ",
"o o o o o o o o o o o o o o o o o o o o o o o o = : > > : = o o o o o o o o o o o o o o o o o o o o ",
"o o o o o o o o o o o o o o o o o o o o w E ;.r.h.v.n.n.x.h.0.O.L q o o o o o o o o o o o o o o o o ",
"o o o o o o o o o o o o o o o o o : D &.A.'.~.~.~.~.~.~.~.~.~.~.U.V.O.Z & o o o o o o o o o o o o o ",
"o o o o o o o o o o o o o o o o N ;.U.~.~.~.~.~.~.~.~.~.~.~.~.~.~.~.~.L.+.k o o o o o o o o o o o o ",
"o o o o o o o o o o o o o o s ] U.~.~.~.~.~.~.~.~.~.~.~.~.~.~.~.~.~.~.~.~.H.Q o o o o o o o o o o o ",
"o o o o o o o o o o o o o j u.~.~.~.~.~.~.~.~.~.~.~.~.~.~.~.~.~.~.~.~.~.~.~./.$.y o o o o o o o o o ",
"o o o o o o o o o o o o x n.~.~.~.~.~.~.~.~.~.~.~.~.~.~.~.~.~.~.~.~.~.~.~.~.~.~.p.d o o o o o o o o ",
"o o o o o o o o o o o c n.~.~.~.~.~.~.~.~.~.~.~.~.~.~.~.~.~.~.~.~.~.~.~.~.~.~.~.~.l.7 o o o o o o o ",
"o o o o o o o o o o p a.~.~.~.~.~.~.~.~.~.~.~.~.~.~.~.~.~.~.~.~.~.~.~.~.~.~.~.~.~.l.7 o o o o o o o ",
"o o o o o o o o o o ;.~.~.~.~.~.~.~.~.~.~.~.~.~.~.~.~.~.~.~.~.~.~.~.~.~.~.~.~.~.v.Z o o o o o o o o ",
"o o o o o o o o o I /.~.~.~.~.~.~.~.~.~.~.~.~.~.~.~.~.~.~.~.~.~.~.~.~.~.~.~./.3.g o o o o o o o o o ",
"o o o o o o o o y Z.~.~.~.~.~.~.~.~.~.~.~.~.~.~.~.~.~.~.~.~.~.~.~.~.~.~.~.!.#.o o o o o o o o o o o ",
"o o o o o o o o ~ ~.~.~.~.~.~.~.~.~.~.~.~.~.~.~.~.~.~.~.~.~.~.~.~.~.~.~.'.} o o o o o o o o o o o o ",
"o o o o o o o < l.~.~.~.~.~.~.~.~.~.~.~.~.~.~.~.~.~.~.~.~.~.~.~.~.~.~.L.Y o o o o o o o o o o o o o ",
"o o o o o o o V /.~.~.~.~.~.~.~.~.~.~.~.~.~.~.~.~.~.~.~.~.~.~.~.~.~.G.J o o o o o o o o o o o o o o ",
"o o o o o o o ..~.~.~.~.~.~.~.~.~.~.~.~.~.~.~.~.~.~.~.~.~.~.~.~.~.S.F o o o o o o o o o o o o o o o ",
"o o o o o o 7 B.~.~.~.~.~.~.~.~.~.~.~.~.~.~.~.~.~.~.~.~.~.~.~.~.u.C o o o o o o o o o o o o o o o o ",
"o o o o o o m '.~.~.~.~.~.~.~.~.~.~.~.~.~.~.~.~.~.~.~.~.~.~.~.4.g o o o o o o o o o o o o o o o o o ",
"o o o o o o C ~.~.~.~.~.~.~.~.~.~.~.~.~.~.~.~.~.~.~.~.~.~.Q.$.e o o o o o o o o o o o o o o o o o o ",
"o o o o o o C ~.~.~.~.~.~.~.~.~.~.~.~.~.~.~.~.~.~.~.~.~.U.' o o o o o o o o o o o o o o o o o o o o ",
"o o o o o o C ~.~.~.~.~.~.~.~.~.~.~.~.~.~.~.~.~.~.~.~.L.R o o o o o o o o o o o o o o o o o o o o o ",
"o o o o o o C ~.~.~.~.~.~.~.~.~.~.~.~.~.~.~.~.~.~.~.~.<.o o o o o o o o o o o o o o o o o o o o o o ",
"o o o o o o A ~.~.~.~.~.~.~.~.~.~.~.~.~.~.~.~.~.~.~.~./.#.e o o o o o o o o o o o o o o o o o o o o ",
"o o o o o o A ~.~.~.~.~.~.~.~.~.~.~.~.~.~.~.~.~.~.~.~.~.~.4.f o o o o o o o o o o o o o o o o o o o ",
"o o o o o o V ~.~.~.~.~.~.~.~.~.~.~.~.~.~.~.~.~.~.~.~.~.~.~.f.z o o o o o o o o o o o o o o o o o o ",
"o o o o o o m I.~.~.~.~.~.~.~.~.~.~.~.~.~.~.~.~.~.~.~.~.~.~.~.n.A o o o o o o o o o o o o o o o o o ",
"o o o o o o 4 h.~.~.~.~.~.~.~.~.~.~.~.~.~.~.~.~.~.~.~.~.~.~.~.~.F.Y o o o o o o o o o o o o o o o o ",
"o o o o o o o ) ~.~.~.~.~.~.~.~.~.~.~.~.~.~.~.~.~.~.~.~.~.~.~.~.~.Q.( o o o o o o o o o o o o o o o ",
"o o o o o o o m '.~.~.~.~.~.~.~.~.~.~.~.~.~.~.~.~.~.~.~.~.~.~.~.~.~./.] o o o o o o o o o o o o o o ",
"o o o o o o o = q.~.~.~.~.~.~.~.~.~.~.~.~.~.~.~.~.~.~.~.~.~.~.~.~.~.~./.+.e o o o o o o o o o o o o ",
"o o o o o o o o K /.~.~.~.~.~.~.~.~.~.~.~.~.~.~.~.~.~.~.~.~.~.~.~.~.~.~.~.8.e o o o o o o o o o o o ",
"o o o o o o o o o a.~.~.~.~.~.~.~.~.~.~.~.~.~.~.~.~.~.~.~.~.~.~.~.~.~.~.~.~.a.j o o o o o o o o o o ",
"o o o o o o o o o M L.~.~.~.~.~.~.~.~.~.~.~.~.~.~.~.~.~.~.~.~.~.~.~.~.~.~.~.~.n.G o o o o o o o o o ",
"o o o o o o o o o o ` /.~.~.~.~.~.~.~.~.~.~.~.~.~.~.~.~.~.~.~.~.~.~.~.~.~.~.~.~.J.! & o o o o o o o ",
"o o o o o o o o o o o ;.~.~.~.~.~.~.~.~.~.~.~.~.~.~.~.~.~.~.~.~.~.~.~.~.~.~.~.~.~.Z.0 o o o o o o o ",
"o o o o o o o o o o o i 1.~.~.~.~.~.~.~.~.~.~.~.~.~.~.~.~.~.~.~.~.~.~.~.~.~.~.~.~.>.1 o o o o o o o ",
"o o o o o o o o o o o o s 1.~.~.~.~.~.~.~.~.~.~.~.~.~.~.~.~.~.~.~.~.~.~.~.~.~.~. .r o o o o o o o o ",
"o o o o o o o o o o o o o i } /.~.~.~.~.~.~.~.~.~.~.~.~.~.~.~.~.~.~.~.~.~.~.J.P r o o o o o o o o o ",
"o o o o o o o o o o o o o o o H v.~.~.~.~.~.~.~.~.~.~.~.~.~.~.~.~.~.~.~./.8.c o o o o o o o o o o o ",
"o o o o o o o o o o o o o o o o l _ h./.~.~.~.~.~.~.~.~.~.~.~.~.~.~.Q.f.Q < o o o o o o o o o o o o ",
"o o o o o o o o o o o o o o o o o o 4 ~ r.D.Q.~.~.~.~.~.~.~.~.U.Z.4.T 2 o o o o o o o o o o o o o o ",
"o o o o o o o o o o o o o o o o o o o o o 0 ( X.,.r.t.y.0.:.| Y 4 o o o o o o o o o o o o o o o o o ",
"o o o o o o o o o o o o o o o o o o o o o o o o o o o o o o o o o o o o o o o o o o o o o o o o o o ",
"o o o o o o o o o o o o o o o o o o o o o o o o o o o o o o o o o o o o o o o o o o o o o o o o o o ",
"o o o o o o o o o o o o o o o o o o o o o o o o o o o o o o o o o o o o o o o o o o o o o o o o o o ",
"o o o o o o o o o o o o o o o o o o o o o o o o o o o o o o o o o o o o o o o o o o o o o o o o o o "
};
