/* XPM */
static char *e6b55aabd30146ea84cc96b4357873afFcSnahAfgQliu2Et[] = {
/* columns rows colors chars-per-pixel */
"50 50 102 2 ",
"   c black",
".  c #010000",
"X  c #000100",
"o  c #010100",
"O  c #000101",
"+  c #010101",
"@  c #010202",
"#  c #010404",
"$  c #030504",
"%  c #040706",
"&  c #090F0D",
"*  c #08100C",
"=  c #0B1210",
"-  c #0F1815",
";  c #111C19",
":  c #131F1B",
">  c #15221E",
",  c #1E3029",
"<  c #22362F",
"1  c #233831",
"2  c #263D35",
"3  c #2C463D",
"4  c #2C473E",
"5  c #2F4C42",
"6  c #324E44",
"7  c #324E45",
"8  c #35544A",
"9  c #35554A",
"0  c #36564C",
"q  c #38594E",
"w  c #3A5C51",
"e  c #3C6255",
"r  c #3E6256",
"t  c #3F6459",
"y  c #406658",
"u  c #426A5D",
"i  c #456F61",
"p  c #467161",
"a  c #467162",
"s  c #4B7769",
"d  c #4D7B6B",
"f  c #4F7E6E",
"g  c #4A8176",
"h  c #4B8377",
"j  c #4E877C",
"k  c #4E887C",
"l  c #4F897E",
"z  c #548675",
"x  c #5B917E",
"c  c #5B917F",
"v  c #5B937F",
"b  c #508C80",
"n  c #559386",
"m  c #559387",
"M  c #569387",
"N  c #579488",
"B  c #579588",
"V  c #5B9C8E",
"C  c #619A87",
"Z  c #619B87",
"A  c #67A590",
"S  c #60A394",
"D  c #62A496",
"F  c #62A597",
"G  c #68A590",
"H  c #64A898",
"J  c #67AC9C",
"K  c #6EAF99",
"L  c #68AD9D",
"P  c #69AF9E",
"I  c #70B39C",
"U  c #72B59E",
"Y  c #6CB3A1",
"T  c #6DB5A3",
"R  c #6FB7A5",
"E  c #74B9A1",
"W  c #71BAA7",
"Q  c #77BEA5",
"!  c #74BDA7",
"~  c #72BCA8",
"^  c #72BCA9",
"/  c #73BCA9",
"(  c #73BDA9",
")  c #74BDAA",
"_  c #74BEAA",
"`  c #75C0AB",
"'  c #79C2A9",
"]  c #78C3AE",
"[  c #79C4AE",
"{  c #7AC6AF",
"}  c #7CC6AD",
"|  c #7CC7AD",
" . c #7DC7AE",
".. c #7DC8AE",
"X. c #7BC7B0",
"o. c #7CC8B0",
"O. c #7DC8B0",
"+. c #7DC9B1",
"@. c #7EC9B0",
"#. c #7ECAB0",
"$. c #7ECAB1",
"%. c #7FCBB1",
/* pixels */
"                                                                                                    ",
"                                                                                                    ",
"                                                                                                    ",
"                  5 j M M M M M M M M M M M N N M M M M M M M M N M N M M M M b 5                   ",
"                  M %.%.%.%.%.%.%.%.%.%.%.%.%.%.%.%.%.%.%.%.%.%.%.%.%.%.%.%.%.%.( 5                 ",
"                5 %.%.%.%.%.%.%.%.%.%.%.%.%.%.%.%.%.%.%.%.%.%.%.%.%.%.%.%.%.%.%.%.5                 ",
"                5 %.%.%.%.%.%.%.%.%.%.%.%.%.%.%.%.%.%.%.%.%.%.%.%.%.%.%.%.%.%.%.%.5                 ",
"                5 %.%.%.%.%.%.%.%.%.%.%.%.%.%.%.%.%.%.%.%.%.%.%.%.%.%.%.%.%.%.%.%.5                 ",
"                5 %.%.%.%.%.%.%.%.%.%.%.%.%.%.%.%.%.%.%.%.%.%.%.%.%.%.%.%.%.%.%.%.5                 ",
"                5 %.%.5 5 5 5 5 5 5 5 5 5 5 5 5 5 5 5 5 5 5 5 5 5 5 5 5 5 5 5 %.%.5                 ",
"                5 %.%.5                                                     5 %.%.5                 ",
"                5 %.%.5                                                     5 %.%.5                 ",
"                5 %.%.5       8 u                             e q           5 %.%.5                 ",
"                5 %.%.5       %.%.                            } %.1         5 %.%.5                 ",
"                5 %.%.5       f c                             p %.#         5 %.%.5                 ",
"                5 %.%.5               = I ,           & %.#                 5 %.%.5                 ",
"                5 %.%.5                 c Q *       : C }                   5 %.%.5                 ",
"                5 %.%.5                 - ..} I } U %.%.4                   5 %.%.5                 ",
"                5 %.%.5                   % y p A s 2 :                     5 %.%.5                 ",
"                5 %.%.5                                                     5 %.%.5                 ",
"                5 %.%.5                                                     5 %.%.5                 ",
"                5 %.%.5                                                     5 %.%.5                 ",
"                5 %.%.5                                                     5 %.%.5                 ",
"                5 %.%.5                                                     5 %.%.5                 ",
"                5 %.%.5                                                     5 %.%.5                 ",
"                5 %.%.5 5 5 5 5 5 5 5 5 5 5 5 5 5 5 5 5 5 5 5 5 5 5 5 5 5 5 5 %.%.5                 ",
"                5 %.%.%.%.%.%.%.%.%.%.%.%.%.%.%.%.%.%.%.%.%.%.%.%.%.%.%.%.%.%.%.%.5                 ",
"                5 %.%.%.%.%.%.%.%.%.%.%.%.%.%.%.%.%.%.%.%.%.%.%.%.%.%.%.%.%.%.%.%.5                 ",
"                5 %.%.%.%.%.%.g k %.%.%.%.%.%.%.%.%.%.%.%.%.%.%.%.%.%.%.%.%.%.%.%.5                 ",
"                5 %.%.%.%.%.%.5 t %.%.%.%.%.%.%.%.%.%.%.%.%.%.%.%.%.V 5 g _ %.%.%.5                 ",
"                5 %.%.%.%.( P 5 6 R ( %.%.%.%.%.%.%.%.%.%.%.%.%.%.] 5     g %.%.%.5                 ",
"                5 %.%.%.Y 5         5 D %.%.%.%.%.%.%.%.%.%.%.%.%.{ 5     j %.%.%.5                 ",
"                5 %.%.%.%.{ _ 5 6 ` { %.%.%.%.%.%.%.%.S k N %.%.%.%.g 5 5 Y %.%.%.5                 ",
"                5 %.%.%.%.%.%.5 w %.%.%.%.%.%.%.%.%.Y 5   5 N %.%.%.%.%.%.%.%.%.%.5                 ",
"                5 %.%.%.%.%.%.M H %.%.%.%.%.%.%.%.%.P       g %.%.%.%.%.%.%.%.%.%.5                 ",
"                5 %.%.%.%.%.%.%.%.%.%.%.%.%.%.%.%.%.( 5   5 T %.%.%.%.%.%.%.%.%.%.5                 ",
"                5 %.%.%.%.%.%.%.%.%.%.%.%.%.%.%.%.%.%.( Q %.%.%.%.%.%.%.%.%.%.%.%.5                 ",
"                5 %.%.%.%.%.%.%.%.%.%.%.%.%.%.%.%.%.%.%.%.%.%.%.%.%.%.%.%.%.%.%.%.5                 ",
"                5 %.K G G G G %.%.' G G K %.E G G E %.%.%.K G ' %.%.%.%.%.%.%.%.%.5                 ",
"                5 %.8         4 ' G     8 %.z     z %.K <       d %.%.%.%.%.%.%.%.5                 ",
"                5 %.8   8 z     G G       %.8     z %.<   4 d     c %.%.%.%.%.%.%.5                 ",
"                5 %.8   < 8   8 %.G   8   G   8   z K     ' %.d   e %.%.%.%.%.%.D 5                 ",
"                0 %.8         < E G   z   8   z   z G     %.%.z   8 %.%.%.%.%.X.g                   ",
"                8 %.8   z %.4   z G   z 8 >   G   z E     K %.i   i %.%.%.%.%.g                     ",
"                5 %.8   < 8     c G   z z   8 G   z %.8   > 4     G %.%.%.%.g 5                     ",
"                5 D 8         i %.G   z G   z G   z %.' i >   < C %.%.%.( g                         ",
"                  5 V ( _ ( ( ( _ _ _ ( _ _ ( ( ( _ _ _ _ ( _ ( _ W J g 5                           ",
"                                                                                                    ",
"                                                                                                    ",
"                                                                                                    "
};
