/* XPM */
static char *e084a599cef04d97831672b467e85121retjqWZrobWKriPm[] = {
/* columns rows colors chars-per-pixel */
"50 50 119 2 ",
"   c #000000",
".  c #050509",
"X  c #070809",
"o  c #09090B",
"O  c #0D0E13",
"+  c #0F1013",
"@  c #131415",
"#  c #1A161E",
"$  c #171A1F",
"%  c #191A1F",
"&  c #1A1724",
"*  c #1D1A23",
"=  c #211A26",
"-  c #24162A",
";  c #211C2A",
":  c #261E31",
">  c #242426",
",  c #2D2336",
"<  c #2A2C30",
"1  c #302337",
"2  c #31253A",
"3  c #35293C",
"4  c #38283F",
"5  c #372940",
"6  c #3B2B45",
"7  c #3E294A",
"8  c #422E4C",
"9  c #413247",
"0  c #45334E",
"q  c #463251",
"w  c #4A3554",
"e  c #4C3359",
"r  c #4F395D",
"t  c #52395E",
"y  c #553B63",
"u  c #583E65",
"i  c #583F68",
"p  c #535051",
"a  c #594161",
"s  c #5E416C",
"d  c #5F4471",
"f  c #60426E",
"g  c #644573",
"h  c #684777",
"j  c #6B457A",
"k  c #6B497B",
"l  c #744C83",
"z  c #754E88",
"x  c #715080",
"c  c #7A518D",
"v  c #7D5392",
"b  c #815592",
"n  c #84549C",
"m  c #8A5B9E",
"M  c #8E5CA4",
"N  c #915EA7",
"B  c #965FAD",
"V  c #9761AF",
"C  c #9C62B4",
"Z  c #A063B7",
"A  c #A365BC",
"S  c #A767C4",
"D  c #AA6AC5",
"F  c #AD69CA",
"G  c #B46AD1",
"H  c #B56BD3",
"J  c #B46CD2",
"K  c #B66BD5",
"L  c #B66BD6",
"P  c #B76BD7",
"I  c #B269D1",
"U  c #B86BD8",
"Y  c #B96BDA",
"T  c #BA6BDB",
"R  c #B86DD9",
"E  c #BB6BDC",
"W  c #BB6BDD",
"Q  c #BC6BDD",
"!  c #BC6BDE",
"~  c #BD6BDF",
"^  c #BD6AE0",
"/  c #BF6CE2",
"(  c #CF5BFF",
")  c #CF5FFD",
"_  c #CF5CFE",
"`  c #CF5DFE",
"'  c #C36BE7",
"]  c #C16CE4",
"[  c #C16DE4",
"{  c #C26CE6",
"}  c #C26CE7",
"|  c #C36BE8",
" . c #C46BE9",
".. c #C56BE9",
"X. c #C56BEA",
"o. c #C76BEC",
"O. c #C76AED",
"+. c #C969EF",
"@. c #C86AEE",
"#. c #C86AEF",
"$. c #CB67F5",
"%. c #CC66F5",
"&. c #CC67F5",
"*. c #CD65F7",
"=. c #CC66F6",
"-. c #CC67F6",
";. c #C969F1",
":. c #CA69F1",
">. c #CA68F3",
",. c #CD63F9",
"<. c #CE61FB",
"1. c #CE62FA",
"2. c #CE63FA",
"3. c #CE62FB",
"4. c #CD65F8",
"5. c #CD64F9",
"6. c #CE60FC",
"7. c #CF60FC",
"8. c #CE61FC",
/* pixels */
"                                                                                                    ",
"                                                                                                    ",
"                                                                                                    ",
"                                                                                                    ",
"                                        X @ * > > > > % + .                                         ",
"                                  . 3 c K ;.5.7.7.7.<.*.X.A s =                                     ",
"                              . w F <.( ( ( ( ( ( ( ( ( ( ( ( ;.C 6                                 ",
"                            2 F ( ( ( ( ( ( ( ( ( ( ( ( ( ( ( ( ( 7.m @                             ",
"                          z *.( ( ( ( ( ( ( ( ( ( ( ( ( ( ( ( ( ( ( ( ' 0                           ",
"                      . M ( ( ( ( ( ( ( ( ( ( ( ( ( ( ( ( ( ( ( ( ( ( ( <.u                         ",
"                      M ( ( ( ( ( ( ( ( ( ( ( ( ( ( ( ( ( ( ( ( ( ( ( ( ( 7.q                       ",
"                    l ( ( ( ( ( ( ( ( ( ( ( ( ( ( ( ( ( ( ( ( ( ( ( ( ( ( ( *.,                     ",
"                  6 7.( ( ( ( ( ( ( ( ( ( ( ( ( ( ( ( ( ( ( ( ( ( ( ( ( ( ( ( G                     ",
"                X U ( ( ( ( ( ( ( ( ( ( ( ( ( ( ( ( ( ( ( ( ( ( ( ( ( ( ( ( ( ( z                   ",
"                h ( ( ( ( ( 5.5.5.5.5.5.5.5.<.( ( ( ( ( ( <.*.5.5.5.5.5.5.5.( ( *.+                 ",
"              X / ( ( ( X.t : % % % % % % % : g _ ( ( ( b * $ % % % % % % : w { ( p                 ",
"              y ( ( ( ( g                       b ( ( G                       < ( *.X               ",
"              B ( ( ( ( y                       3 ( ( Z                       @ ;.( 4               ",
"            o ' ( ( ( ( i                       5 ( ( A                       @ +.( m               ",
"            5 7.( ( ( ( s         - j j l 7     6 ( ( A         . 3 a a 0 X   @ +.( U               ",
"            q ( ( ( ( ( s       o I ( ( ( <.y   6 ( ( A         x <.( ( ( m   @ O.( { .             ",
"            w ( ( ( ( ( s       e _ ( ( ( ( n   6 ( ( A       . J ( ( ( ( +.  @ +.( X..             ",
"            u ( ( ( ( ( i       y ( ( ( ( ( n   6 ( ( A       X R ( ( ( ( *.  @ O.( $..             ",
"            f ( ( ( ( ( i       8 <.( ( ( ( v   6 ( ( A       . D ( ( ( ( {   @ O.( 5.X             ",
"            s ( ( ( ( ( u         B <.<.7.^ 7   5 ( ( A         9 { <.5.*.s   @ X.( 5.X             ",
"            s ( ( ( ( ( d           . . .       h ( ( F           . . . .     3 *.( 5.X             ",
"            s ( ( ( ( ( ~ 3 o o o o o o o o o r 5.( ( _ h o o o o o o o o o # S ( ( 5.X             ",
"            s ( ( ( ( ( ( *.W ~ ~ W ~ ~ ~ ~ U _ ( ( ( ( ( ~ K ~ ~ ~ ~ ~ ~ U X.( ( ( 5.X             ",
"            s ( ( ( ( ( ( ( ( ( ( ( ( ( ( ( ( ( ( ( ( ( ( ( ( ( ( ( ( ( ( ( ( ( ( ( 5.X             ",
"            s ( ( ( ( ( ( ( ( ( ( ( ( ( ( ( ( ( ( ( ( ( ( ( ( ( ( ( ( ( ( ( ( ( ( ( 5.X             ",
"            s ( ( ( ( ( ( ( ( ( ( ( ( ( ( ( ( ( ( ( ( ( ( ( ( ( ( ( ( ( ( ( ( ( ( ( 5.X             ",
"            s ( ( ( ( ( ( ( ( ( ( ( ( ( ( ( ( ( ( ( ( ( ( ( ( ( ( ( ( ( ( ( ( ( ( ( 5.X             ",
"            s ( ( ( ( ( ( ( ( ( ( ( ( ( ( ( ( ( ( ( ( ( ( ( ( ( ( ( ( ( ( ( ( ( ( ( 5.X             ",
"            s ( ( ( ( ( ( ( ( ( ( ( ( ( ( ( ( ( ( ( ( ( ( ( ( ( ( ( ( ( ( ( ( ( ( ( 5.X             ",
"            s ( ( ( ( ( ( ( ( ( ( ( ( ( ( ( ( ( ( ( ( ( ( ( ( ( ( ( ( ( ( ( ( ( ( ( 5.X             ",
"            s ( ( ( ( ( ( ( ( ( ( ( ( ( ( ( ( ( ( ( ( ( ( ( ( ( ( ( ( ( ( ( ( ( ( ( 5.X             ",
"            s ( ( ( ( ( ( ( ( ( ( ( ( ( ( ( ( ( ( ( ( ( ( ( ( ( ( ( ( ( ( ( ( ( ( ( 5.X             ",
"            s ( ( ( ( ( ( ( ( ( ( ( ( ( ( ( ( ( ( ( ( ( ( ( ( ( ( ( ( ( ( ( ( ( ( ( 5.X             ",
"            s ( ( ( ( ( ( ( ( ( ( ( ( ( ( ( ( ( ( ( ( ( ( ( ( ( ( ( ( ( ( ( ( ( ( ( 5.X             ",
"            s ( ( ( ( ( ( ( *.( ( ( ( ( ( ( ( ( 5._ ( ( ( ( ( ( ( ( _ _ ( ( ( ( ( ( 5.X             ",
"            f ( ( ( ( ( ( F & N ( ( ( ( ( ( ( X.2 y ( ( ( ( ( ( ( _ s 2 *.( ( ( ( ( 5.X             ",
"            g ( ( ( ( ( U O     S ( ( ( ( ( <.1     l ( ( ( ( ( ( k     8 _ ( ( ( ( <.X             ",
"            2 5.( ( ( ;.;       O U ( ( ( ( y         C ( ( ( ( M         u ( ( ( ( K .             ",
"              g ( ( <.6           = +.( ( c           o I ( ( A             b ( ( | *               ",
"                v X.u               w | M               ; K F X               V / 2                 ",
"                  X                   X .                 .                     X                   ",
"                                                                                                    ",
"                                                                                                    ",
"                                                                                                    ",
"                                                                                                    "
};
